<svg width="444" height="164" viewBox="0 0 444 164" fill="none" xmlns="http://www.w3.org/2000/svg">
<path d="M262.77 85.6364C267.19 81.5903 270.36 76.4043 271.916 70.6724C273.472 64.9405 273.351 58.8944 271.568 53.2267C269.784 47.5589 266.41 42.4987 261.832 38.6255C257.254 34.7523 251.657 32.2227 245.682 31.3265C239.707 30.4303 233.596 31.2037 228.048 33.5582C222.5 35.9126 217.74 39.7529 214.313 44.6392C210.886 49.5254 208.93 55.2601 208.671 61.1864C208.411 67.1127 209.857 72.991 212.844 78.148L206.296 84.1413L207.873 94.8034L197.703 92.0756L189.511 99.577L191.141 110.174L180.985 107.38L173.943 113.819L174.905 120.377L168.704 118.672L164.615 122.422L164 132.298L179.007 136.009L227.718 91.4198C233.494 93.9394 239.898 94.7344 246.131 93.706C252.364 92.6775 258.151 89.871 262.77 85.6364ZM257.959 46.8044C259.206 48.1147 260.029 49.7585 260.324 51.5279C260.619 53.2972 260.372 55.1125 259.615 56.7442C258.858 58.3759 257.625 59.7506 256.072 60.6944C254.518 61.6382 252.715 62.1086 250.889 62.0462C249.063 61.9838 247.297 61.3913 245.815 60.3437C244.332 59.2962 243.2 57.8406 242.56 56.1612C241.921 54.4818 241.804 52.654 242.223 50.909C242.642 49.1641 243.58 47.5805 244.917 46.3585C246.707 44.7218 249.086 43.8494 251.532 43.933C253.978 44.0166 256.289 45.0494 257.959 46.8044Z" fill="#535A70"/>
<path d="M258.275 47.0465C258.275 47.0465 257.677 46.4933 256.454 45.7293C254.714 44.6996 252.683 44.2603 250.669 44.4779C249.037 44.6524 247.485 45.2738 246.189 46.2725C244.893 47.2711 243.903 48.6076 243.33 50.1321C242.758 51.6566 242.625 53.309 242.947 54.9041C243.269 56.4992 244.033 57.974 245.153 59.1632C246.273 60.3525 247.706 61.2093 249.29 61.6376C250.874 62.0658 252.547 62.0487 254.122 61.588C255.697 61.1274 257.111 60.2415 258.206 59.0295C259.302 57.8175 260.035 56.3274 260.323 54.726C260.693 52.7526 260.389 50.7134 259.459 48.9302C258.794 47.6129 258.209 47.086 258.275 47.0333C258.342 46.9807 258.448 47.1519 258.714 47.4285C259.105 47.8274 259.449 48.2694 259.738 48.7458C260.819 50.5625 261.224 52.6971 260.882 54.7787C260.683 56.0171 260.236 57.2034 259.566 58.2672C258.896 59.331 258.017 60.2508 256.981 60.9719C255.946 61.693 254.775 62.2008 253.537 62.4652C252.3 62.7295 251.022 62.7451 249.778 62.5109C247.775 62.147 245.943 61.1537 244.554 59.6781C243.165 58.2024 242.292 56.3228 242.066 54.3177C241.917 53.0734 242.021 51.8121 242.373 50.6085C242.725 49.4049 243.317 48.2835 244.114 47.3107C244.912 46.3379 245.898 45.5335 247.015 44.9451C248.131 44.3567 249.356 43.9963 250.616 43.8852C252.741 43.6908 254.868 44.2408 256.626 45.4395C257.113 45.7489 257.559 46.1161 257.956 46.5328C258.275 46.8753 258.355 47.0334 258.275 47.0465Z" fill="#535A70"/>
<path d="M263.44 85.7145C263.44 85.7145 263.293 85.8732 262.972 86.1508L261.552 87.4729C259.628 89.0201 257.535 90.3504 255.312 91.4393C251.081 93.4404 246.461 94.511 241.77 94.5772C237.079 94.6434 232.429 93.7037 228.142 91.8228H228.41L179.681 136.855L179.547 137H179.346L164.308 133.272L164 133.205V132.888C164.187 129.781 164.388 126.383 164.603 122.933V122.615L164.71 122.509L168.901 118.649L169.048 118.503H169.263L175.476 120.222L174.981 120.645C174.673 118.596 174.351 116.348 174.016 114.035V113.836L174.164 113.704L181.221 107.199L181.381 107.04H181.596L191.773 109.857L191.277 110.293C190.782 106.882 190.246 103.233 189.71 99.544V99.3325L189.871 99.2002L192.04 97.1906L198.08 91.6377L198.24 91.479H198.455L208.645 94.2952L208.136 94.7315C207.61 91.1088 207.087 87.5258 206.57 83.9825V83.7842L206.717 83.6388L213.278 77.5966L213.211 78.0726C210.672 73.6189 209.236 68.6355 209.02 63.5292C208.895 61.062 209.075 58.5891 209.556 56.1649C209.994 53.7811 210.713 51.4561 211.698 49.2369C214.182 43.6244 218.239 38.8298 223.391 35.4182C228.543 32.0066 234.576 30.1202 240.778 29.9812C246.979 29.8423 253.092 31.4566 258.396 34.634C263.699 37.8113 267.972 42.4193 270.712 47.9148C273.281 53.0996 274.377 58.8751 273.885 64.6265C273.546 68.9138 272.315 73.086 270.27 76.8827C270.069 77.2793 269.868 77.6495 269.667 78.0197L269.011 79.0245C268.569 79.6724 268.208 80.3467 267.779 80.8358C266.909 81.8671 266.239 82.7926 265.583 83.4801L263.976 85.2385L263.454 85.7145C263.454 85.7145 263.601 85.5294 263.922 85.1857L265.369 83.6652C265.998 83.0041 266.708 82.0654 267.498 81.0209C267.9 80.4789 268.248 79.8443 268.676 79.2096C268.89 78.8791 269.105 78.5486 269.319 78.1916L269.908 77.0678C271.886 73.3102 273.078 69.1979 273.413 64.976C273.748 60.754 273.218 56.5087 271.856 52.493C270.495 48.4773 268.328 44.7732 265.486 41.6015C262.644 38.4298 259.184 35.8552 255.313 34.0313C251.443 32.2073 247.239 31.1712 242.954 30.9846C238.669 30.7981 234.39 31.4649 230.372 32.9454C226.353 34.426 222.678 36.6899 219.564 39.6023C216.45 42.5148 213.962 46.0162 212.247 49.898C211.292 52.0686 210.592 54.3398 210.158 56.6673C209.7 59.0364 209.53 61.4508 209.649 63.8597C209.878 68.8282 211.286 73.6742 213.76 78.0065L213.908 78.2709L213.68 78.4825L207.132 84.5246L207.252 84.1808C207.77 87.7065 208.292 91.2939 208.819 94.943L208.913 95.538L208.31 95.3793L198.133 92.5632L198.522 92.4706L192.482 98.0236L190.326 99.9935L190.447 99.6366C190.983 103.325 191.518 106.988 192.014 110.385L192.107 110.994L191.505 110.835L181.328 108.006L181.703 107.913C179.279 110.161 176.869 112.369 174.646 114.418L174.78 114.074C175.101 116.335 175.422 118.583 175.73 120.685L175.811 121.267L175.235 121.108L169.035 119.389L169.397 119.297L165.286 123.078L165.406 122.827C165.192 126.277 164.978 129.675 164.79 132.782L164.509 132.399L179.547 136.141L179.212 136.233L228.089 91.36L228.209 91.2542H228.356C232.584 93.1325 237.172 94.0883 241.808 94.0564C246.444 94.0244 251.018 93.0055 255.218 91.0691C257.435 90.0267 259.535 88.7595 261.485 87.2879L262.945 86.0847L263.44 85.7145Z" fill="#535A70"/>
<path d="M261.777 81.6621C266.193 77.6175 269.36 72.4335 270.916 66.7036C272.471 60.9737 272.351 54.9296 270.57 49.2634C268.79 43.5972 265.42 38.5379 260.847 34.6648C256.274 30.7918 250.682 28.2615 244.712 27.3639C238.743 26.4662 232.636 27.2374 227.092 29.5891C221.548 31.9408 216.791 35.778 213.365 40.6612C209.939 45.5445 207.982 51.2765 207.72 57.2007C207.457 63.125 208.899 69.0021 211.881 74.1591L205.348 80.1405L206.911 90.8178L196.758 88.0108L188.583 95.5269L190.146 106.191L179.993 103.397L172.952 109.851L173.901 116.409L167.716 114.717L163.615 118.469L163 128.346L178.002 132.045L226.696 87.4467C232.474 89.9804 238.885 90.783 245.126 89.7539C251.366 88.7249 257.159 85.91 261.777 81.6621ZM257.021 42.8222C258.267 44.1327 259.09 45.7769 259.385 47.5466C259.679 49.3163 259.432 51.132 258.676 52.764C257.919 54.396 256.686 55.771 255.134 56.715C253.581 57.659 251.778 58.1295 249.953 58.0671C248.128 58.0046 246.362 57.4121 244.88 56.3643C243.398 55.3165 242.266 53.8606 241.627 52.1809C240.988 50.5011 240.871 48.6729 241.29 46.9276C241.709 45.1824 242.646 43.5984 243.982 42.3762C244.868 41.564 245.908 40.9312 247.043 40.514C248.177 40.0967 249.385 39.9033 250.596 39.9447C251.807 39.9861 252.998 40.2616 254.1 40.7554C255.203 41.2491 256.195 41.9514 257.021 42.8222Z" fill="#8CE0D7"/>
<path d="M257.28 43.0584C257.28 43.0584 256.684 42.5023 255.464 41.7343C253.747 40.6651 251.721 40.1991 249.709 40.4101C248.085 40.5884 246.543 41.2142 245.255 42.2176C243.967 43.221 242.984 44.5624 242.416 46.0917C241.847 47.6211 241.717 49.2781 242.038 50.8775C242.359 52.4769 243.119 53.9556 244.233 55.1482C245.348 56.3408 246.773 57.2003 248.348 57.6306C249.924 58.0609 251.589 58.0449 253.156 57.5846C254.723 57.1242 256.131 56.2376 257.222 55.0238C258.314 53.8101 259.046 52.3171 259.336 50.7119C259.701 48.7267 259.393 46.6764 258.461 44.8857C257.798 43.5616 257.227 43.0319 257.28 42.9789C257.334 42.926 257.453 43.0981 257.731 43.3762C258.116 43.778 258.455 44.2222 258.739 44.7003C259.821 46.5299 260.225 48.6813 259.88 50.7781C259.68 52.0208 259.233 53.211 258.565 54.2785C257.897 55.3459 257.022 56.2691 255.992 56.9935C254.961 57.7179 253.795 58.2289 252.564 58.4964C251.332 58.7638 250.059 58.7823 248.82 58.5508C246.823 58.2047 244.99 57.2261 243.593 55.7595C242.196 54.293 241.309 52.4164 241.063 50.4073C240.918 49.1571 241.025 47.8906 241.377 46.6822C241.729 45.4739 242.32 44.348 243.115 43.3709C243.909 42.3939 244.891 41.5852 246.003 40.9926C247.115 40.4 248.334 40.0354 249.589 39.9202C251.71 39.7275 253.832 40.2852 255.583 41.4959C256.071 41.8031 256.517 42.1726 256.909 42.5949C257.188 42.8863 257.307 43.0452 257.28 43.0584Z" fill="#535A70"/>
<path d="M262.511 82.1901C262.511 82.1901 262.363 82.3476 262.055 82.6234L260.634 83.8578C258.705 85.3903 256.611 86.7114 254.389 87.7973C250.152 89.7842 245.525 90.8472 240.828 90.913C236.132 90.9787 231.476 90.0457 227.183 88.1781H227.451L178.694 132.905L178.546 133.036H178.359L163.295 129.333L163 129.254V128.952C163.188 125.866 163.402 122.491 163.603 119.064V118.906L163.71 118.814L167.825 115.046L167.986 114.901H168.2L174.405 116.595L173.909 117.028C173.614 114.993 173.279 112.761 172.944 110.463V110.266L173.105 110.121L180.155 103.674L180.315 103.516L180.543 103.582L190.729 106.379L190.22 106.812L188.652 96.1622V95.9521L188.799 95.8076L190.984 93.8248L197.015 88.3094L197.175 88.1518L197.403 88.2175L207.589 91.0146L207.079 91.4479C206.552 87.8498 206.03 84.2911 205.511 80.7718V80.5617L205.672 80.4304L212.239 74.4292L212.159 74.9019C209.618 70.4785 208.18 65.5288 207.964 60.4571C207.845 58.0067 208.025 55.5513 208.5 53.1427C208.942 50.7757 209.661 48.4666 210.644 46.2617C213.694 39.3153 219.167 33.6588 226.083 30.3045C233 26.9502 240.909 26.117 248.395 27.954C255.881 29.7909 262.456 34.1782 266.943 40.3306C271.43 46.4831 273.536 53.9992 272.884 61.5339C272.542 65.7917 271.31 69.9353 269.265 73.707L268.662 74.8363L268.005 75.8343C267.563 76.4778 267.201 77.1475 266.786 77.6333C265.915 78.6576 265.245 79.5768 264.588 80.2597L263.033 81.7173C262.698 82.0456 262.511 82.2032 262.511 82.2032C262.511 82.2032 262.671 82.0062 262.993 81.6648L264.427 80.1678C265.057 79.5112 265.767 78.5788 266.558 77.5414C266.96 77.0162 267.322 76.3858 267.751 75.7424L268.394 74.7444L268.97 73.615C270.951 69.8649 272.132 65.7588 272.442 61.547C273.011 54.1722 270.9 46.8378 266.481 40.8416C262.063 34.8454 255.622 30.5739 248.298 28.7831C240.975 26.9923 233.241 27.7976 226.465 31.0565C219.689 34.3154 214.308 39.8178 211.274 46.59C210.323 48.7463 209.626 51.0021 209.197 53.3134C208.732 55.6655 208.561 58.0644 208.688 60.4571C208.912 65.3909 210.317 70.2039 212.789 74.508L212.95 74.7706L212.722 74.9807L206.155 80.9819L206.275 80.6405C206.803 84.1423 207.325 87.701 207.843 91.3166L207.937 91.9207L207.348 91.7499L197.122 88.9398L197.497 88.8478L191.466 94.3763L189.282 96.3592L189.402 96.0177C189.952 99.6815 190.474 103.306 190.97 106.694L191.064 107.298L190.474 107.127L180.275 104.33L180.664 104.238L173.601 110.686L173.722 110.358C174.043 112.603 174.378 114.822 174.673 116.858L174.754 117.449L174.177 117.291L167.972 115.584L168.334 115.492L164.233 119.248L164.354 118.985C164.139 122.412 163.925 125.8 163.724 128.873L163.442 128.492L178.493 132.222L178.158 132.314L227.075 87.7448L227.196 87.6397L227.343 87.7054C231.577 89.5616 236.168 90.5058 240.806 90.4741C245.444 90.4424 250.021 89.4355 254.228 87.5215C256.449 86.4838 258.555 85.2253 260.514 83.7659L261.961 82.5709L262.511 82.1901Z" fill="#535A70"/>
<path d="M258.805 78.8974C260.385 77.2495 261.826 75.4806 263.115 73.6079C264.573 71.3882 265.681 68.9669 266.399 66.4256C267.382 63.0573 267.694 59.5366 267.317 56.054C266.88 51.8456 265.436 47.7958 263.101 44.2305C260.412 40.1488 256.657 36.8377 252.222 34.6368C249.847 33.4311 247.294 32.5914 244.655 32.1476C243.298 31.9004 241.925 31.7445 240.546 31.6809C239.137 31.6597 237.729 31.729 236.33 31.8883C230.454 32.5452 224.949 35.0215 220.624 38.9533C216.298 42.8852 213.38 48.0655 212.298 53.7334C212.037 55.0823 211.868 56.4465 211.792 57.8172C211.765 59.164 211.832 60.5111 211.992 61.8491C212.26 64.4471 212.942 66.9884 214.013 69.3815C215.955 73.8492 219.087 77.7298 223.083 80.6216C226.563 83.1468 230.605 84.8348 234.88 85.5481C238.405 86.1572 242.017 86.0999 245.519 85.3796C248.171 84.8493 250.726 83.936 253.1 82.67C255.105 81.5531 257.013 80.2783 258.805 78.8585C258.805 78.8585 258.712 78.9752 258.486 79.1696L257.489 80.0512C256.955 80.5288 256.381 80.9624 255.773 81.3476C254.974 81.9375 254.129 82.4663 253.246 82.9293C250.866 84.2581 248.292 85.2243 245.613 85.7945C239.146 87.2025 232.377 86.3592 226.481 83.411C220.585 80.4627 215.934 75.5955 213.335 69.6537C212.225 67.1826 211.517 64.5584 211.234 61.8751C210.853 59.1361 210.938 56.3545 211.486 53.6426C212.591 47.8105 215.589 42.4787 220.038 38.4334C224.487 34.3882 230.151 31.8438 236.197 31.1753C239.044 30.818 241.932 30.9143 244.748 31.4605C247.457 31.9349 250.076 32.8093 252.515 34.0534C257.056 36.3248 260.891 39.7404 263.62 43.9452C265.774 47.284 267.176 51.0314 267.73 54.9386C268.285 58.8457 267.981 62.8233 266.838 66.6071C266.071 69.1787 264.901 71.6191 263.367 73.8412C262.84 74.6657 262.244 75.4462 261.585 76.1748C261.142 76.74 260.653 77.269 260.122 77.7565L259.151 78.664C258.938 78.8066 258.819 78.9103 258.805 78.8974Z" fill="#535A70"/>
<path d="M258.358 56.7453C258.292 56.7453 259.018 56.096 259.902 54.7601C261.145 52.8533 261.675 50.6062 261.406 48.3801C261.223 46.7492 260.609 45.1883 259.619 43.8418C258.63 42.4953 257.298 41.4067 255.746 40.6766C253.932 39.7985 251.883 39.4549 249.861 39.6903C248.273 39.8714 246.752 40.3988 245.416 41.2308C244.081 42.0629 242.968 43.1769 242.165 44.4853C241.361 45.7936 240.89 47.2605 240.788 48.7705C240.685 50.2804 240.955 51.7923 241.575 53.187C242.301 54.7917 243.456 56.1901 244.926 57.2447C246.221 58.1572 247.719 58.7765 249.307 59.0551C251.637 59.4616 254.045 59.1142 256.141 58.0687C257.619 57.3321 258.292 56.6828 258.358 56.7453C258.424 56.8077 258.213 56.9325 257.883 57.2197C257.402 57.6519 256.866 58.0253 256.287 58.3309C254.48 59.321 252.408 59.7927 250.323 59.6885C248.238 59.5843 246.23 58.9088 244.544 57.7441C242.856 56.5892 241.551 55.0039 240.78 53.1735C240.009 51.343 239.804 49.3428 240.189 47.4063C240.615 45.2118 241.777 43.2057 243.502 41.6853C245.228 40.165 247.425 39.2114 249.769 38.9662C251.943 38.7176 254.146 39.0962 256.089 40.0524C257.842 40.9173 259.318 42.2106 260.364 43.798C261.466 45.4735 262.034 47.4145 261.998 49.3878C261.963 51.3612 261.327 53.283 260.166 54.9224C259.788 55.4454 259.345 55.9233 258.846 56.3457C258.556 56.6329 258.371 56.7702 258.358 56.7453Z" fill="#535A70"/>
<path d="M174.001 128.079C173.856 127.925 184.694 117.763 198.229 105.5C211.764 93.237 222.853 83.3336 222.999 83.4883C223.144 83.643 212.306 93.8043 198.771 106.068C185.236 118.331 174.147 128.234 174.001 128.079Z" fill="#535A70"/>
<path d="M180.737 67.6873L181.222 66.6396L181.849 67.6023C182.362 68.3714 183.084 68.9801 183.931 69.3578L185 69.825L184.031 70.4621C183.249 70.9671 182.631 71.6846 182.248 72.529L181.778 73.5766L181.136 72.6139C180.626 71.8427 179.904 71.2334 179.055 70.8584L178 70.3913L178.969 69.7542C179.75 69.2527 180.365 68.5338 180.737 67.6873Z" fill="#8CE0D7"/>
<path d="M150.572 60.3008L150.839 59.7027L151.204 60.2451C151.493 60.6884 151.908 61.0369 152.397 61.2466L153 61.5247L152.439 61.8864C151.998 62.1739 151.647 62.5788 151.428 63.0547L151.161 63.6667L150.796 63.1103C150.507 62.667 150.092 62.3185 149.604 62.1089L149 61.8307L149.547 61.483C149.992 61.1898 150.347 60.7807 150.572 60.3008Z" fill="#8CE0D7"/>
<path d="M244.572 108.859L244.839 108.261L245.203 108.818C245.504 109.251 245.916 109.597 246.396 109.819L247 110.083L246.453 110.445C246.005 110.731 245.654 111.143 245.442 111.627L245.161 112.225L244.797 111.683C244.508 111.241 244.1 110.889 243.618 110.667L243 110.403L243.561 110.042C244.009 109.755 244.36 109.344 244.572 108.859Z" fill="#8CE0D7"/>
<path d="M290.752 83.5431L291.222 82.4955L291.864 83.4582C292.373 84.2299 293.096 84.8394 293.945 85.2136L295 85.6808L294.031 86.3179C293.253 86.8232 292.639 87.541 292.263 88.3848L291.778 89.4324L291.151 88.4697C290.634 87.7043 289.914 87.0965 289.069 86.7143L288 86.2471L288.969 85.61C289.751 85.105 290.369 84.3875 290.752 83.5431Z" fill="#8CE0D7"/>
<path d="M284.32 48.4715L285.067 46.8198L286.067 48.3393C286.87 49.5475 288.003 50.505 289.333 51.1009L291 51.8276L289.467 52.8186C288.25 53.6227 287.284 54.7488 286.68 56.0691L285.933 57.7207L284.933 56.2012C284.13 54.9931 282.997 54.0355 281.667 53.4396L280 52.6997L281.533 51.7087C282.752 50.9125 283.719 49.79 284.32 48.4715Z" fill="#8CE0D7"/>
<path d="M171.312 38.5636L172.059 36.9099L173.061 38.418C173.861 39.6311 174.996 40.5907 176.331 41.183L178 41.9238L176.478 42.916C175.251 43.7053 174.281 44.8314 173.688 46.1572L172.941 47.8108L171.939 46.3027C171.137 45.0862 169.996 44.1259 168.655 43.5378L167 42.7969L168.522 41.8047C169.746 41.0114 170.714 39.8865 171.312 38.5636Z" fill="#8CE0D7"/>
</svg>
