<svg width="341" height="62" viewBox="0 0 341 62" fill="none" xmlns="http://www.w3.org/2000/svg">
<path d="M210.846 30.4487C210.846 25.2303 215.046 21 220.227 21H224.688C227.109 21 229.319 21.3887 231.319 22.1662C233.319 22.9437 235.021 24.1099 236.425 25.6648C237.827 27.1843 238.915 29.1103 239.687 31.4427C240.459 33.7398 240.846 36.4255 240.846 39.4999C240.846 42.5745 240.459 45.278 239.687 47.6104C238.915 49.9074 237.827 51.8333 236.425 53.3883C235.021 54.9079 233.319 56.0564 231.319 56.8338C229.319 57.6114 227.109 58 224.688 58H220.227C215.046 58 210.846 53.7698 210.846 48.5513V30.4487ZM224.688 50.8438C227.073 50.8438 228.951 50.1725 230.319 48.8296C231.687 47.4867 232.372 45.3309 232.372 42.3624V36.6376C232.372 33.6691 231.687 31.5134 230.319 30.1705C228.951 28.8276 227.073 28.1562 224.688 28.1562H218.846V50.8438H224.688Z" fill="#FFAF8C"/>
<path d="M262.845 58C260.448 58 258.26 57.5966 256.279 56.7896C254.298 55.9825 252.614 54.7894 251.223 53.2105C249.835 51.5964 248.757 49.6141 247.993 47.2631C247.229 44.8772 246.846 42.1227 246.846 38.9999C246.846 35.8772 247.229 33.1403 247.993 30.7895C248.757 28.4035 249.835 26.4211 251.223 24.8421C252.614 23.2281 254.298 22.0175 256.279 21.2105C258.26 20.4035 260.448 20 262.845 20C265.244 20 267.431 20.4035 269.412 21.2105C271.393 22.0175 273.077 23.2281 274.468 24.8421C275.857 26.4211 276.934 28.4035 277.698 30.7895C278.463 33.1403 278.846 35.8772 278.846 38.9999C278.846 42.1227 278.463 44.8772 277.698 47.2631C276.934 49.6141 275.857 51.5964 274.468 53.2105C273.077 54.7894 271.393 55.9825 269.412 56.7896C267.431 57.5966 265.244 58 262.845 58ZM262.845 50.8947C265.244 50.8947 267.101 50.1052 268.423 48.5263C269.777 46.9474 270.455 44.6841 270.455 41.7369V36.2632C270.455 33.3158 269.777 31.0526 268.423 29.4737C267.101 27.8947 265.244 27.1053 262.845 27.1053C260.448 27.1053 258.571 27.8947 257.217 29.4737C255.896 31.0526 255.236 33.3158 255.236 36.2632V41.7369C255.236 44.6841 255.896 46.9474 257.217 48.5263C258.571 50.1052 260.448 50.8947 262.845 50.8947Z" fill="#FFAF8C"/>
<path d="M301.134 58C298.64 58 296.392 57.614 294.388 56.8421C292.384 56.035 290.681 54.8595 289.274 53.3158C287.869 51.7369 286.779 49.7895 286.006 47.4737C285.233 45.1227 284.846 42.3859 284.846 39.2633C284.846 36.1754 285.233 33.4386 286.006 31.0526C286.779 28.6316 287.869 26.614 289.274 25C290.681 23.3509 292.384 22.1053 294.388 21.2631C296.392 20.421 298.64 20 301.134 20C304.545 20 307.355 20.7017 309.57 22.1053C310.959 22.9636 312.175 24.1394 313.218 25.6327C314.325 27.2167 313.554 29.3265 311.837 30.2161C309.826 31.2581 307.423 30.079 305.729 28.5784C305.708 28.5609 305.689 28.5435 305.668 28.5263C304.649 27.5789 303.138 27.1053 301.134 27.1053C298.781 27.1053 296.883 27.8772 295.443 29.421C294.035 30.9298 293.333 33.1403 293.333 36.0526V41.9473C293.333 44.8596 294.035 47.0877 295.443 48.6316C296.883 50.1404 298.781 50.8947 301.134 50.8947C303.103 50.8947 304.668 50.3684 305.828 49.3158C305.955 49.1992 306.079 49.0803 306.199 48.9588C307.761 47.3905 310.211 46.4352 312.126 47.545C313.747 48.4839 314.4 50.5431 313.303 52.0582C312.234 53.536 310.989 54.7622 309.57 55.7369C307.355 57.2457 304.545 58 301.134 58Z" fill="#FFAF8C"/>
<path d="M130.846 54.422C130.846 56.398 129.246 58 127.273 58H108.131C105.212 58 102.846 55.6303 102.846 52.7073C102.846 51.5012 103.257 50.3314 104.011 49.3915L121.054 28.1562H107.318C105.345 28.1562 103.746 26.5542 103.746 24.5781C103.746 22.602 105.345 21 107.318 21H125.14C128.058 21 130.422 23.3683 130.422 26.2897C130.422 27.4975 130.01 28.669 129.253 29.6094L112.162 50.8438H127.273C129.246 50.8438 130.846 52.4458 130.846 54.422Z" fill="#6FBDB8"/>
<path d="M150.846 58C148.448 58 146.259 57.5966 144.279 56.7896C142.298 55.9825 140.613 54.7894 139.224 53.2105C137.834 51.5964 136.757 49.6141 135.992 47.2631C135.228 44.8772 134.846 42.1227 134.846 38.9999C134.846 35.8772 135.228 33.1403 135.992 30.7895C136.757 28.4035 137.834 26.4211 139.224 24.8421C140.613 23.2281 142.298 22.0175 144.279 21.2105C146.259 20.4035 148.448 20 150.846 20C153.243 20 155.432 20.4035 157.413 21.2105C159.393 22.0175 161.078 23.2281 162.468 24.8421C163.858 26.4211 164.935 28.4035 165.699 30.7895C166.464 33.1403 166.846 35.8772 166.846 38.9999C166.846 42.1227 166.464 44.8772 165.699 47.2631C164.935 49.6141 163.858 51.5964 162.468 53.2105C161.078 54.7894 159.393 55.9825 157.413 56.7896C155.432 57.5966 153.243 58 150.846 58ZM150.846 50.8947C153.243 50.8947 155.102 50.1052 156.422 48.5263C157.777 46.9474 158.455 44.6841 158.455 41.7369V36.2632C158.455 33.3158 157.777 31.0526 156.422 29.4737C155.102 27.8947 153.243 27.1053 150.846 27.1053C148.448 27.1053 146.572 27.8947 145.217 29.4737C143.897 31.0526 143.237 33.3158 143.237 36.2632V41.7369C143.237 44.6841 143.897 46.9474 145.217 48.5263C146.572 50.1052 148.448 50.8947 150.846 50.8947Z" fill="#6FBDB8"/>
<path d="M182.979 53.9713C182.979 56.1962 181.158 58 178.912 58C176.666 58 174.846 56.1962 174.846 53.9713V30.4487C174.846 25.2303 179.116 21 184.383 21H192.556C194.268 21 195.82 21.2827 197.211 21.8481C198.602 22.4136 199.779 23.2264 200.742 24.2865C201.741 25.3114 202.508 26.5483 203.043 27.9971C203.578 29.4461 203.846 31.054 203.846 32.8209C203.846 35.33 203.275 37.5211 202.134 39.3941C201.028 41.2671 199.333 42.6274 197.051 43.4757L201.472 52.2358C202.808 54.8841 200.865 58 197.876 58C196.326 58 194.914 57.117 194.247 55.7307L188.811 44.4298H182.979V53.9713ZM191.54 37.6447C192.752 37.6447 193.698 37.3444 194.375 36.7436C195.089 36.1075 195.445 35.1887 195.445 33.9871V31.6547C195.445 30.4532 195.089 29.5521 194.375 28.9513C193.698 28.3152 192.752 27.9971 191.54 27.9971H182.979V37.6447H191.54Z" fill="#6FBDB8"/>
<path fill-rule="evenodd" clip-rule="evenodd" d="M38.8152 29.3875C40.7388 27.7425 39.4631 24.63 36.9195 24.7625L18.3919 25.7277L18.2977 23.9721L36.8253 23.0068C41.0645 22.786 43.1909 27.9735 39.9848 30.7153L15.588 51.5792C13.2701 53.5614 15.6108 57.2024 18.4202 55.9847L48.1272 43.1084L48.8457 44.7178L19.1387 57.5939C14.4563 59.6234 10.5552 53.555 14.4184 50.2513L38.8152 29.3875Z" fill="#6FBDB8" stroke="#6FBDB8" stroke-width="3"/>
<path d="M7.66574 20.9741C9.33691 18.1132 13.0108 17.1489 15.8716 18.82C18.7324 20.4912 19.6969 24.1651 18.0257 27.0259C16.3545 29.8867 12.6806 30.8511 9.81979 29.18C6.95895 27.5088 5.99456 23.8349 7.66574 20.9741Z" fill="white"/>
<path fill-rule="evenodd" clip-rule="evenodd" d="M15.4 19.2714C12.5124 17.5846 8.80398 18.558 7.11713 21.4457C5.43026 24.3333 6.40372 28.0417 9.29138 29.7286C12.179 31.4154 15.8874 30.442 17.5743 27.5543C19.2611 24.6666 18.2877 20.9583 15.4 19.2714ZM16.6324 17.1617C12.5796 14.7942 7.3749 16.1604 5.00741 20.2133C2.63991 24.2661 4.00616 29.4708 8.05897 31.8383C12.1118 34.2058 17.3165 32.8395 19.684 28.7867C22.0515 24.7339 20.6853 19.5292 16.6324 17.1617Z" fill="#FFAF8C"/>
<path d="M15.8457 24.5C15.8457 25.8807 14.7264 27 13.3457 27C11.965 27 10.8457 25.8807 10.8457 24.5C10.8457 23.1193 11.965 22 13.3457 22C14.7264 22 15.8457 23.1193 15.8457 24.5Z" fill="#FFAF8C"/>
<path fill-rule="evenodd" clip-rule="evenodd" d="M12.3457 25.636C12.9731 25.636 13.4817 25.1274 13.4817 24.5C13.4817 23.8726 12.9731 23.364 12.3457 23.364C11.7183 23.364 11.2097 23.8726 11.2097 24.5C11.2097 25.1274 11.7183 25.636 12.3457 25.636ZM12.3457 28C14.2787 28 15.8457 26.433 15.8457 24.5C15.8457 22.567 14.2787 21 12.3457 21C10.4127 21 8.8457 22.567 8.8457 24.5C8.8457 26.433 10.4127 28 12.3457 28Z" fill="#FFAF8C"/>
<path d="M70.1124 26.9405L71.0274 27.6664L71.7662 26.7675L72.8753 25.4183L73.6141 24.5194L72.6991 23.7936C69.7871 21.4838 66.1495 20.1552 62.3675 20.0128C58.5853 19.8704 54.8654 20.9221 51.8024 23.0095C48.7385 25.0976 46.5073 28.1035 45.4775 31.5531C44.4475 35.0032 44.6827 38.6863 46.1403 42.01C47.5975 45.3327 50.1886 48.0989 53.4891 49.876C56.789 51.6529 60.6145 52.3433 64.3572 51.8396C68.1004 51.3361 71.5552 49.6655 74.1649 47.0831C76.7758 44.4997 78.3882 41.1541 78.7342 37.5793L78.8457 36.429L77.6748 36.3197L75.9175 36.1557L74.7469 36.0464L74.6354 37.1964C74.3813 39.822 73.1963 42.3009 71.2431 44.2333C69.2875 46.1683 66.6705 47.4459 63.7986 47.8324C60.9254 48.219 57.99 47.6873 55.4682 46.3293C52.9479 44.972 51.0048 42.8793 49.9216 40.4098C48.8401 37.9434 48.671 35.2286 49.4284 32.6913C50.1865 30.1523 51.8377 27.9082 54.1494 26.3328C56.4634 24.7557 59.301 23.945 62.2097 24.0545C65.1188 24.1641 67.9012 25.1867 70.1124 26.9405Z" fill="#6FBDB8" stroke="#6FBDB8"/>
<path d="M57.7599 25.6446C59.2958 25.0669 60.0632 23.3785 59.4736 21.8736L58.3614 22.2918L59.4736 21.8736C58.8839 20.3686 57.1607 19.6169 55.6244 20.1947C53.3952 21.0331 51.3815 22.3317 49.7107 24.0081C48.0398 25.6842 46.7495 27.7 45.9187 29.9264C45.0877 32.1527 44.7341 34.5411 44.8764 36.9415C45.0186 39.3415 45.6535 41.7033 46.7399 43.8795C47.8263 46.0557 49.3418 48.0015 51.1923 49.5953C53.043 51.1889 55.1904 52.3973 57.5014 53.1419C59.8126 53.8868 62.2384 54.1519 64.6262 53.9169C67.0141 53.6821 69.3106 52.9522 71.37 51.7722C72.7904 50.9583 73.2684 49.1705 72.4376 47.779C71.6071 46.3876 69.7823 45.9191 68.3619 46.7331C67.047 47.4866 65.5742 47.9567 64.0308 48.1086C62.4867 48.2604 60.8973 48.0911 59.363 47.5965C57.8278 47.1019 56.3828 46.2928 55.126 45.2107C53.8693 44.1281 52.8348 42.8015 52.0924 41.3146C51.35 39.8277 50.9207 38.222 50.8247 36.603C50.7287 34.9845 50.9686 33.3945 51.5147 31.9311C52.0605 30.4686 52.9008 29.1628 53.9734 28.0868C55.0455 27.0112 56.3339 26.1809 57.7599 25.6446Z" fill="#FFAF8D" stroke="#FFAF8C" stroke-linecap="round"/>
<path d="M74.8457 26.5C74.8457 27.8807 73.7265 29 72.3457 29C70.9651 29 69.8457 27.8807 69.8457 26.5C69.8457 25.1193 70.9651 24 72.3457 24C73.7265 24 74.8457 25.1193 74.8457 26.5Z" fill="#5A9E9A"/>
<path fill-rule="evenodd" clip-rule="evenodd" d="M71.8458 27.3708C72.6027 27.3708 73.2166 26.7571 73.2166 26C73.2166 25.2429 72.6027 24.6292 71.8458 24.6292C71.0887 24.6292 70.4748 25.2429 70.4748 26C70.4748 26.7571 71.0887 27.3708 71.8458 27.3708ZM71.8458 30C74.055 30 75.8457 28.2091 75.8457 26C75.8457 23.7909 74.055 22 71.8458 22C69.6364 22 67.8457 23.7909 67.8457 26C67.8457 28.2091 69.6364 30 71.8458 30Z" fill="#5A9E9A"/>
<path d="M78.8457 36.5C78.8457 37.8808 77.7264 39 76.3458 39C74.965 39 73.8457 37.8808 73.8457 36.5C73.8457 35.1193 74.965 34 76.3458 34C77.7264 34 78.8457 35.1193 78.8457 36.5Z" fill="#5A9E9A"/>
<path fill-rule="evenodd" clip-rule="evenodd" d="M76.3457 38.0421C77.1975 38.0421 77.8881 37.3516 77.8881 36.5C77.8881 35.6483 77.1975 34.9578 76.3457 34.9578C75.4941 34.9578 74.8036 35.6483 74.8036 36.5C74.8036 37.3516 75.4941 38.0421 76.3457 38.0421ZM76.3457 41C78.831 41 80.8457 38.9853 80.8457 36.5C80.8457 34.0147 78.831 32 76.3457 32C73.8604 32 71.8457 34.0147 71.8457 36.5C71.8457 38.9853 73.8604 41 76.3457 41Z" fill="#5A9E9A"/>
<path d="M50.0624 45.7496C51.571 45.0821 52.256 43.3108 51.5923 41.7935C50.9285 40.2762 49.1674 39.5873 47.6587 40.2549L38.629 44.2504C37.1204 44.9179 36.4354 46.6892 37.0991 48.2065C37.7629 49.7238 39.524 50.4127 41.0327 49.7451L50.0624 45.7496Z" fill="#FFAF8C" stroke="#FFAF8C" stroke-linecap="round" stroke-linejoin="round"/>
<g filter="url(#filter0_d_21_36379)">
<g clip-path="url(#clip0_21_36379)">
<rect width="89" height="31" rx="15.5" transform="matrix(0.984494 0.175419 -0.174352 0.984683 252.846 0)" fill="#54C2B6"/>
<path d="M279.454 29.1908L281.224 19.2917L274.884 26.552L273.184 26.242L269.762 17.3967L268.003 27.1025L264.414 26.448L267.411 9.91741L270.574 10.4944L274.899 21.8951L282.852 12.7334L286.016 13.3104L283.043 29.8453L279.454 29.1908ZM290.145 14.0634L293.946 14.7566L291.995 25.5251L301.832 16.1948L305.421 16.8492L302.425 33.3798L298.647 32.6909L300.595 21.946L290.761 31.2528L287.149 30.594L290.145 14.0634ZM314.304 35.8389C312.62 35.5317 311.159 34.8912 309.92 33.9173C308.701 32.9305 307.815 31.7198 307.261 30.2853C306.727 28.838 306.608 27.2956 306.905 25.6583C307.202 24.021 307.853 22.6272 308.858 21.4769C309.882 20.3137 311.136 19.4934 312.621 19.0161C314.125 18.5259 315.726 18.4358 317.426 18.7458C318.859 19.007 320.104 19.4943 321.162 20.2076C322.235 20.9239 323.08 21.826 323.696 22.9142L320.829 24.7334C319.946 23.2386 318.677 22.3406 317.025 22.0392C316.002 21.8526 315.047 21.9144 314.162 22.2245C313.279 22.5189 312.537 23.026 311.935 23.7457C311.348 24.4682 310.963 25.3411 310.777 26.3645C310.592 27.3878 310.646 28.3411 310.942 29.2244C311.253 30.1105 311.768 30.8551 312.488 31.458C313.211 32.0453 314.084 32.4322 315.107 32.6187C316.76 32.9201 318.263 32.5194 319.618 31.4165L321.663 34.1314C320.701 34.9482 319.593 35.5023 318.337 35.7936C317.081 36.085 315.736 36.1001 314.304 35.8389Z" fill="white"/>
</g>
</g>
<defs>
<filter id="filter0_d_21_36379" x="245.441" y="0" width="97.0249" height="50.4612" filterUnits="userSpaceOnUse" color-interpolation-filters="sRGB">
<feFlood flood-opacity="0" result="BackgroundImageFix"/>
<feColorMatrix in="SourceAlpha" type="matrix" values="0 0 0 0 0 0 0 0 0 0 0 0 0 0 0 0 0 0 127 0" result="hardAlpha"/>
<feOffset dy="2.32445"/>
<feGaussianBlur stdDeviation="1"/>
<feComposite in2="hardAlpha" operator="out"/>
<feColorMatrix type="matrix" values="0 0 0 0 0 0 0 0 0 0 0 0 0 0 0 0 0 0 0.25 0"/>
<feBlend mode="normal" in2="BackgroundImageFix" result="effect1_dropShadow_21_36379"/>
<feBlend mode="normal" in="SourceGraphic" in2="effect1_dropShadow_21_36379" result="shape"/>
</filter>
<clipPath id="clip0_21_36379">
<rect width="89" height="31" rx="15.5" transform="matrix(0.984494 0.175419 -0.174352 0.984683 252.846 0)" fill="white"/>
</clipPath>
</defs>
</svg>
